<svg width="16" height="17" viewBox="0 0 16 17" fill="none" xmlns="http://www.w3.org/2000/svg">
<path d="M11.6215 7.85688L8.0308 13.5242C7.97511 13.611 7.89791 13.682 7.80668 13.7303C7.71545 13.7785 7.6133 13.8023 7.51015 13.7994C7.45464 13.8082 7.3981 13.8082 7.34259 13.7994C7.21425 13.7621 7.10211 13.6829 7.02402 13.5745C6.94593 13.466 6.90639 13.3345 6.9117 13.201V9.61033H4.4102C4.19594 9.61036 3.98559 9.55287 3.80113 9.44387C3.61666 9.33486 3.46484 9.17834 3.36151 8.99063C3.25818 8.80293 3.20713 8.59093 3.2137 8.37676C3.22026 8.1626 3.2842 7.95412 3.39883 7.7731L6.9895 2.10582C7.05661 1.98928 7.161 1.89875 7.28586 1.8488C7.41072 1.79886 7.54875 1.79242 7.67771 1.83053C7.80605 1.86785 7.91819 1.94705 7.99628 2.05551C8.07437 2.16396 8.11391 2.29544 8.1086 2.42898V6.01965H10.6101C10.8244 6.01962 11.0347 6.07711 11.2192 6.18611C11.4036 6.29512 11.5555 6.45164 11.6588 6.63935C11.7621 6.82705 11.8132 7.03905 11.8066 7.25322C11.8 7.46738 11.7361 7.67586 11.6215 7.85688Z" fill="url(#paint0_linear_2485_1493)"/>
<defs>
<linearGradient id="paint0_linear_2485_1493" x1="7.51015" y1="1.806" x2="7.51015" y2="13.806" gradientUnits="userSpaceOnUse">
<stop stop-color="#F7C855"/>
<stop offset="1" stop-color="#FFAA01"/>
</linearGradient>
</defs>
</svg>
